<?xml version="1.0" encoding="utf-8"?>
<!-- Generator: Adobe Illustrator 22.1.0, SVG Export Plug-In . SVG Version: 6.00 Build 0)  -->
<svg version="1.1" xmlns="http://www.w3.org/2000/svg" xmlns:xlink="http://www.w3.org/1999/xlink" x="0px" y="0px"
	 viewBox="0 200 1200 600" style="enable-background:new 0 200 1200 600;" xml:space="preserve">
<style type="text/css">
	.st0{display:none;}
	.st1{display:inline;fill-rule:evenodd;clip-rule:evenodd;fill:#BF0010;}
	.st2{display:inline;}
	.st3{fill-rule:evenodd;clip-rule:evenodd;fill:#BBBBBB;}
	.st4{fill:#EEEEEE;}
	.st5{display:inline;fill:#EEEEEE;}
	.st6{fill-rule:evenodd;clip-rule:evenodd;fill:#EEEEEE;}
	.st7{display:inline;fill:#333333;}
	.st8{display:inline;fill-rule:evenodd;clip-rule:evenodd;fill:#333333;}
	.st9{fill-rule:evenodd;clip-rule:evenodd;fill:#BF0010;}
	.st10{display:inline;fill-rule:evenodd;clip-rule:evenodd;fill:#EEEEEE;}
	.st11{display:inline;fill-rule:evenodd;clip-rule:evenodd;fill:#003080;}
	.st12{fill-rule:evenodd;clip-rule:evenodd;fill:#383838;}
	.st13{fill-rule:evenodd;clip-rule:evenodd;fill:#333333;}
	.st14{display:inline;fill-rule:evenodd;clip-rule:evenodd;fill:url(#SVGID_1_);}
</style>
<g id="Layer_1" class="st0">
	<path class="st1" d="M253.5,887h-240c-16.6,0-30-13.4-30-30V617c0-16.6,13.4-30,30-30h240c16.6,0,30,13.4,30,30v240
		C283.5,873.6,270.1,887,253.5,887z"/>
	<g class="st2">
		<path class="st6" d="M103.4,712.8c-3.7-3.4-12.4-0.3-20,9.2c-9,11.3-10.9,29-20.1,39.5c-7.8,9-30.1,6.8-46,25.4
			C-1,808.2-0.5,829,28.3,854.1c28.9,25.2,48,17.5,63.6-0.4c14.4-16.5,8.5-31.3,19.3-43.6c11.3-13,23.3-12.9,30.9-19
			c9-7.3,7.6-15.3,2.9-17c-4.2-1.5-9.8,7.9-20.9-1.4c-5.3-4.4-4.9-12.7,5.7-24.8c10.6-12.1-0.5-24.1-11.6-12.8
			c-3.3,3.3-10.3,9.2-17.7,2.8C92.4,730.7,108.2,717.2,103.4,712.8z"/>
		<polygon class="st6" points="102,752.8 115.8,764.5 212.3,648.7 203.5,641 		"/>
		<path class="st6" d="M231.6,645c7.1-9.8,14.6-16.8,20.1-21c11.4-8.8,13.9-17.2-4-8.5l-43.1,20.8c-1.7,0.8-3.1,0.6-3.5,4.8
			c-0.2,1.5-0.5,3.2-1.3,4.1l9,7.8c1.3-1.5,6.5-4,12-3.9C224.1,649.1,229.7,647.5,231.6,645z"/>
		
			<rect x="241.1" y="615.3" transform="matrix(0.9005 -0.4349 0.4349 0.9005 -244.7366 166.7446)" class="st6" width="1.7" height="5.7"/>
		<path class="st6" d="M238.7,617.2l-0.9-1.8c-0.2-1.9,3-3.4,4.3-2.1l0.9,1.8C243,616.4,239.8,617.9,238.7,617.2z"/>
		
			<rect x="234.2" y="618.6" transform="matrix(0.9005 -0.4348 0.4348 0.9005 -246.8463 164.0054)" class="st6" width="1.7" height="5.7"/>
		<path class="st6" d="M231.8,620.6l-0.9-1.8c-0.2-1.9,3-3.4,4.3-2.1l0.9,1.8C236,619.7,232.8,621.3,231.8,620.6z"/>
		
			<rect x="227.2" y="622" transform="matrix(0.9006 -0.4347 0.4347 0.9006 -248.9405 161.2527)" class="st6" width="1.7" height="5.7"/>
		<path class="st6" d="M224.8,623.9l-0.9-1.8c-0.2-1.9,3-3.4,4.3-2.1l0.9,1.8C229.1,623.1,225.8,624.7,224.8,623.9z"/>
		
			<rect x="220.3" y="625.4" transform="matrix(0.9004 -0.435 0.435 0.9004 -251.267 158.7362)" class="st6" width="1.7" height="5.7"/>
		<path class="st6" d="M217.9,627.3l-0.9-1.8c-0.2-1.9,3-3.4,4.3-2.1l0.9,1.8C222.1,626.5,218.9,628,217.9,627.3z"/>
		
			<rect x="213.3" y="628.7" transform="matrix(0.9006 -0.4347 0.4347 0.9006 -253.2716 155.8951)" class="st6" width="1.7" height="5.7"/>
		<path class="st6" d="M210.9,630.7l-0.9-1.8c-0.2-1.9,3-3.4,4.3-2.1l0.9,1.8C215.2,629.8,211.9,631.4,210.9,630.7z"/>
		
			<rect x="206.3" y="632.1" transform="matrix(0.9005 -0.4348 0.4348 0.9005 -255.4601 153.2377)" class="st6" width="1.7" height="5.7"/>
		<path class="st6" d="M203.9,634l-0.9-1.8c-0.2-1.9,3-3.4,4.3-2.1l0.9,1.8C208.2,633.2,205,634.8,203.9,634z"/>
	</g>
</g>
<g id="Layer_2">
	<g>
		<g>
			<g>
				<path class="st9" d="M335.3,408c-5.8-9.4-26.2-8.4-48.3,7.2c-26.1,18.5-41.3,54.9-67.3,71.6c-22.3,14.3-68.1-4.2-113.7,25.4
					c-51.9,33.7-63.8,78.1-18,149.5c45.8,71.4,91.1,67.1,135.5,38.6c40.8-26.1,37.6-61.2,68.1-80.7c32.1-20.6,57.6-12.9,77.6-21.3
					c23.7-9.9,25.8-27.9,16.8-34.4c-7.9-5.8-25.8,10.7-43.7-15.9c-8.6-12.8-9.3-24.2-0.7-30.2c29.2-20.5,34.5-66.3,3.9-49.2
					c-9.1,5-21.3,5.2-31.8-9.3C303.3,444.6,342.8,420.1,335.3,408z"/>
				<path class="st6" d="M337.2,551.3c13.7,21.4,29.6,19,38.9,17.8c2.2-0.3,5.4-0.7,6.2-0.3c1.8,1.3,2.6,3.6,2.3,6.3
					c-0.8,6.6-7.5,13.1-17.9,17.5c-6.7,2.8-14.3,3.6-23.2,4.5c-16,1.7-34.1,3.6-55.3,17.2c-15.5,9.9-22.8,23-30.5,37l2.3,1.3
					l-2.3-1.3c-8.4,15-16.6,31.4-37.6,43.8c-18.7,11.1-20-10.8-16.7-28.9c6.4-35.5-27.6-66.3-55.1-89.6s12.1-50.7,53.4-52.8
					s78.9-22.3,91.4-47.1c11.4-22.7,19.7-5.1,23.7,14.9c2,10,16.4,24.3,13.8,33.4C328.3,533.1,333.1,544.8,337.2,551.3z"/>
				<path class="st13" d="M326,528l281.7-187.3L591.8,316L303.4,494.7C304.6,511,311.8,521.5,326,528z"/>
				<path class="st13" d="M650,343.3c21.1-16.4,41.4-26.6,55.8-32.2c29.7-11.7,40.3-27.9-3.2-20.7l-104.5,17.4
					c-4.1,0.7-6.9-0.7-10.5,8.1c-1.3,3.1-3.1,6.5-5.3,7.9l14.3,22.3c3.7-2.4,16.3-4.4,27.9-0.8C631.7,347.6,644.5,347.5,650,343.3z"
					/>
				
					<rect x="687" y="286.4" transform="matrix(0.9863 -0.1648 0.1648 0.9863 -38.8133 117.4976)" class="st13" width="3.7" height="12.6"/>
				<path class="st13" d="M682.5,288.7l-0.7-4.3c0.7-4.2,8.5-5.5,10.5-1.8l0.7,4.3C692.1,289.6,684.3,290.9,682.5,288.7z"/>
				
					<rect x="670.1" y="289.2" transform="matrix(0.9863 -0.1647 0.1647 0.9863 -39.4912 114.6845)" class="st13" width="3.7" height="12.6"/>
				<path class="st13" d="M665.6,291.6l-0.7-4.3c0.7-4.2,8.5-5.5,10.5-1.8l0.7,4.3C675.2,292.4,667.4,293.8,665.6,291.6z"/>
				
					<rect x="653.2" y="292" transform="matrix(0.9864 -0.1645 0.1645 0.9864 -40.1621 111.8535)" class="st13" width="3.7" height="12.6"/>
				<path class="st13" d="M648.7,294.4l-0.7-4.3c0.7-4.2,8.5-5.5,10.5-1.8l0.7,4.3C658.3,295.3,650.5,296.6,648.7,294.4z"/>
				
					<rect x="636.3" y="294.9" transform="matrix(0.9863 -0.1649 0.1649 0.9863 -40.9274 109.3645)" class="st13" width="3.7" height="12.6"/>
				<path class="st13" d="M631.9,297.2l-0.7-4.3c0.7-4.2,8.5-5.5,10.5-1.8l0.7,4.3C641.4,298.1,633.6,299.4,631.9,297.2z"/>
				
					<rect x="619.4" y="297.7" transform="matrix(0.9864 -0.1646 0.1646 0.9864 -41.5612 106.4083)" class="st13" width="3.7" height="12.6"/>
				<path class="st13" d="M615,300l-0.7-4.3c0.7-4.2,8.5-5.5,10.5-1.8l0.7,4.3C624.6,300.9,616.7,302.2,615,300z"/>
				
					<rect x="602.5" y="300.5" transform="matrix(0.9863 -0.1647 0.1647 0.9863 -42.2704 103.7151)" class="st13" width="3.7" height="12.6"/>
				<path class="st13" d="M598.1,302.8l-0.7-4.3c0.7-4.2,8.5-5.5,10.5-1.8l0.7,4.3C607.7,303.7,599.8,305,598.1,302.8z"/>
			</g>
		</g>
		<g>
			<path d="M612.8,439.3c0,1-0.1,1.9-0.2,2.6c-0.1,0.8-0.3,1.4-0.5,1.9c-0.2,0.5-0.5,0.8-0.8,1c-0.3,0.2-0.6,0.3-1,0.3
				c-0.6,0-1.7-0.5-3.1-1.5c-1.5-1-3.4-2.1-5.8-3.3c-2.4-1.2-5.4-2.3-8.7-3.3c-3.4-1-7.4-1.5-12.1-1.5c-5.5,0-10.5,1-14.9,3
				c-4.4,2-8.1,4.8-11.2,8.4c-3.1,3.6-5.4,7.8-7,12.8c-1.6,4.9-2.4,10.3-2.4,16c0,6.4,0.9,12.1,2.7,17.1c1.8,5,4.3,9.2,7.4,12.6
				c3.2,3.4,6.9,6,11.3,7.8c4.4,1.8,9.2,2.6,14.4,2.6c3.1,0,6.3-0.4,9.4-1.1c3.2-0.8,6.2-1.9,8.9-3.4v-29.3h-23.3
				c-0.9,0-1.5-0.4-2-1.3c-0.4-0.9-0.7-2.3-0.7-4.1c0-1,0.1-1.8,0.2-2.5c0.1-0.7,0.3-1.3,0.5-1.7c0.2-0.4,0.5-0.8,0.8-1
				c0.3-0.2,0.7-0.3,1.2-0.3h32c0.6,0,1.1,0.1,1.7,0.3c0.6,0.2,1.1,0.5,1.6,0.9c0.5,0.4,0.8,1,1.1,1.7c0.3,0.7,0.4,1.6,0.4,2.5V515
				c0,1.3-0.2,2.5-0.7,3.5c-0.5,1-1.5,1.9-3,2.6c-1.5,0.8-3.4,1.6-5.8,2.4c-2.4,0.9-4.8,1.6-7.4,2.3c-2.5,0.6-5.1,1.1-7.7,1.4
				c-2.6,0.3-5.2,0.5-7.7,0.5c-7.8,0-14.7-1.2-20.8-3.6c-6.1-2.4-11.3-5.8-15.5-10.3c-4.2-4.5-7.5-9.8-9.7-16
				c-2.2-6.2-3.3-13.2-3.3-20.8c0-8,1.2-15.2,3.6-21.7c2.4-6.5,5.8-12,10.2-16.6c4.4-4.6,9.6-8.1,15.8-10.6
				c6.1-2.5,12.9-3.8,20.4-3.8c3.8,0,7.4,0.3,10.8,1c3.4,0.7,6.4,1.5,9,2.4c2.6,0.9,4.8,1.9,6.6,3c1.8,1.1,3,1.9,3.7,2.6
				c0.7,0.7,1.1,1.5,1.4,2.3C612.7,436.4,612.8,437.7,612.8,439.3z"/>
			<path d="M710.2,524.3c0,0.4-0.1,0.8-0.3,1.1c-0.2,0.3-0.6,0.6-1.1,0.7c-0.5,0.2-1.2,0.3-2.1,0.5c-0.9,0.1-1.9,0.2-3.1,0.2
				c-1.3,0-2.4-0.1-3.3-0.2c-0.8-0.1-1.5-0.3-2-0.5c-0.5-0.2-0.9-0.4-1.1-0.7c-0.2-0.3-0.3-0.7-0.3-1.1v-44.6h-45.8v44.6
				c0,0.4-0.1,0.8-0.3,1.1c-0.2,0.3-0.6,0.6-1.1,0.7c-0.5,0.2-1.2,0.3-2.1,0.5c-0.9,0.1-1.9,0.2-3.2,0.2c-1.2,0-2.3-0.1-3.2-0.2
				c-0.9-0.1-1.6-0.3-2.1-0.5c-0.5-0.2-0.9-0.4-1.1-0.7c-0.2-0.3-0.3-0.7-0.3-1.1v-96.6c0-0.4,0.1-0.8,0.3-1.1
				c0.2-0.3,0.6-0.6,1.1-0.7c0.5-0.2,1.2-0.3,2.1-0.5c0.9-0.1,1.9-0.2,3.2-0.2c1.3,0,2.4,0.1,3.2,0.2c0.9,0.1,1.5,0.3,2.1,0.5
				c0.5,0.2,0.9,0.4,1.1,0.7c0.2,0.3,0.3,0.7,0.3,1.1V468h45.8v-40.3c0-0.4,0.1-0.8,0.3-1.1c0.2-0.3,0.6-0.6,1.1-0.7
				c0.5-0.2,1.2-0.3,2-0.5c0.8-0.1,1.9-0.2,3.3-0.2c1.2,0,2.3,0.1,3.1,0.2c0.9,0.1,1.5,0.3,2.1,0.5c0.5,0.2,0.9,0.4,1.1,0.7
				c0.2,0.3,0.3,0.7,0.3,1.1V524.3z"/>
			<path d="M882.4,524.3c0,0.4-0.1,0.8-0.3,1.1c-0.2,0.3-0.6,0.6-1.1,0.7c-0.5,0.2-1.2,0.3-2,0.5c-0.8,0.1-1.9,0.2-3.2,0.2
				c-1.2,0-2.3-0.1-3.2-0.2c-0.9-0.1-1.6-0.3-2.1-0.5c-0.5-0.2-0.9-0.4-1.1-0.7c-0.2-0.3-0.3-0.7-0.3-1.1v-87.6h-0.2l-35.5,88
				c-0.2,0.4-0.4,0.7-0.7,0.9c-0.3,0.3-0.7,0.5-1.2,0.7c-0.5,0.2-1.2,0.3-1.9,0.4c-0.8,0.1-1.6,0.1-2.7,0.1c-1.1,0-2-0.1-2.8-0.2
				c-0.8-0.1-1.4-0.2-1.9-0.4c-0.5-0.2-0.9-0.4-1.2-0.7c-0.3-0.3-0.5-0.5-0.6-0.9l-33.9-88h-0.1v87.6c0,0.4-0.1,0.8-0.3,1.1
				c-0.2,0.3-0.6,0.6-1.1,0.7c-0.5,0.2-1.2,0.3-2.1,0.5c-0.9,0.1-2,0.2-3.3,0.2c-1.3,0-2.4-0.1-3.2-0.2c-0.9-0.1-1.5-0.3-2-0.5
				c-0.5-0.2-0.9-0.4-1-0.7c-0.2-0.3-0.3-0.7-0.3-1.1v-92.5c0-2.2,0.6-3.7,1.7-4.7c1.2-0.9,2.4-1.4,3.9-1.4h8.2
				c1.7,0,3.2,0.2,4.4,0.5c1.3,0.3,2.4,0.8,3.3,1.5c0.9,0.7,1.7,1.5,2.4,2.6c0.6,1,1.2,2.3,1.7,3.7l28.8,72.9h0.4l29.9-72.6
				c0.6-1.6,1.2-2.9,1.9-4s1.4-2,2.3-2.6c0.8-0.6,1.7-1.1,2.7-1.4c1-0.3,2.2-0.4,3.5-0.4h8.6c0.8,0,1.5,0.1,2.3,0.3
				c0.7,0.2,1.3,0.6,1.8,1.1c0.5,0.5,0.9,1.1,1.2,1.9c0.3,0.8,0.5,1.7,0.5,2.8V524.3z"/>
			<path d="M967.6,524.3c0,0.4-0.1,0.8-0.3,1c-0.2,0.3-0.5,0.5-1,0.7c-0.5,0.2-1.1,0.4-1.8,0.5c-0.8,0.1-1.7,0.2-2.8,0.2
				c-1.2,0-2.2-0.1-2.9-0.2c-0.8-0.1-1.3-0.3-1.8-0.5c-0.4-0.2-0.7-0.5-0.9-0.7c-0.2-0.3-0.2-0.6-0.2-1v-9.3
				c-4,4.4-7.9,7.6-11.8,9.6c-3.9,2-7.8,3-11.8,3c-4.7,0-8.6-0.8-11.8-2.3c-3.2-1.6-5.8-3.7-7.7-6.3c-2-2.7-3.4-5.8-4.2-9.3
				c-0.9-3.6-1.3-7.9-1.3-12.9v-42.5c0-0.4,0.1-0.8,0.3-1c0.2-0.3,0.5-0.5,1-0.8c0.5-0.2,1.2-0.4,2-0.5c0.8-0.1,1.9-0.1,3.1-0.1
				c1.2,0,2.3,0,3.1,0.1c0.8,0.1,1.5,0.2,2,0.5c0.5,0.2,0.8,0.5,1,0.8c0.2,0.3,0.3,0.6,0.3,1v40.8c0,4.1,0.3,7.4,0.9,9.8
				c0.6,2.5,1.5,4.6,2.7,6.3c1.2,1.7,2.8,3.1,4.6,4c1.9,1,4,1.4,6.5,1.4c3.2,0,6.4-1.1,9.6-3.4c3.2-2.3,6.6-5.6,10.1-10v-48.9
				c0-0.4,0.1-0.8,0.3-1c0.2-0.3,0.5-0.5,1-0.8c0.5-0.2,1.2-0.4,2-0.5c0.8-0.1,1.9-0.1,3.1-0.1c1.2,0,2.3,0,3.1,0.1
				c0.8,0.1,1.5,0.2,1.9,0.5c0.5,0.2,0.8,0.5,1,0.8c0.2,0.3,0.3,0.6,0.3,1V524.3z"/>
			<path d="M1035.3,505.3c0,3.6-0.7,6.8-2,9.6s-3.2,5.2-5.6,7.1c-2.4,1.9-5.3,3.4-8.7,4.4c-3.4,1-7.1,1.5-11.1,1.5
				c-2.5,0-4.9-0.2-7.1-0.6s-4.3-0.9-6.1-1.5c-1.8-0.6-3.3-1.2-4.5-1.9c-1.2-0.6-2.2-1.2-2.7-1.7c-0.6-0.5-1-1.2-1.2-2.2
				c-0.3-0.9-0.4-2.2-0.4-3.8c0-1,0.1-1.8,0.2-2.5c0.1-0.7,0.2-1.2,0.4-1.6c0.2-0.4,0.4-0.7,0.7-0.9c0.3-0.2,0.6-0.3,1-0.3
				c0.6,0,1.4,0.3,2.5,1c1.1,0.7,2.5,1.5,4.1,2.3c1.6,0.8,3.6,1.6,5.8,2.3c2.2,0.7,4.8,1,7.7,1c2.2,0,4.1-0.2,5.9-0.7
				c1.8-0.5,3.3-1.2,4.6-2.1c1.3-0.9,2.3-2.1,3-3.5c0.7-1.4,1-3.1,1-5c0-2-0.5-3.6-1.5-5c-1-1.3-2.3-2.5-4-3.6c-1.7-1-3.5-2-5.6-2.8
				c-2.1-0.8-4.2-1.6-6.4-2.5c-2.2-0.9-4.4-1.9-6.5-3c-2.1-1.1-4-2.5-5.6-4.1c-1.7-1.6-3-3.5-4-5.8c-1-2.2-1.5-4.9-1.5-8
				c0-2.7,0.5-5.4,1.6-7.9c1.1-2.5,2.7-4.7,4.8-6.6c2.1-1.9,4.8-3.4,8-4.5c3.2-1.1,6.9-1.7,11.2-1.7c1.9,0,3.7,0.2,5.6,0.5
				c1.9,0.3,3.6,0.7,5.1,1.2c1.5,0.5,2.8,1,3.8,1.5c1.1,0.5,1.9,1,2.4,1.4c0.5,0.4,0.9,0.8,1.1,1.1c0.2,0.3,0.3,0.7,0.4,1
				s0.2,0.9,0.2,1.4c0.1,0.6,0.1,1.3,0.1,2.1c0,0.9,0,1.6-0.1,2.3c-0.1,0.6-0.2,1.2-0.4,1.6c-0.2,0.4-0.4,0.7-0.7,0.9
				c-0.3,0.2-0.5,0.3-0.9,0.3c-0.5,0-1.1-0.3-2-0.9c-0.9-0.6-2-1.2-3.4-1.8c-1.4-0.6-3-1.3-4.9-1.8c-1.9-0.6-4.1-0.9-6.5-0.9
				c-2.2,0-4.1,0.2-5.8,0.7c-1.7,0.5-3,1.2-4.1,2.1c-1.1,0.9-1.9,2-2.4,3.2c-0.5,1.2-0.8,2.6-0.8,4c0,2,0.5,3.7,1.6,5.1
				c1,1.4,2.4,2.6,4,3.6c1.7,1,3.6,2,5.7,2.8c2.1,0.8,4.3,1.7,6.5,2.6c2.2,0.9,4.4,1.9,6.5,3c2.2,1.1,4.1,2.4,5.7,4
				c1.7,1.6,3,3.4,4,5.6C1034.8,499.7,1035.3,502.3,1035.3,505.3z"/>
			<path d="M1068,430.7c0,3-0.6,5.1-1.7,6.1c-1.1,1.1-3.2,1.6-6.3,1.6c-3,0-5.1-0.5-6.2-1.6c-1.1-1.1-1.7-3.1-1.7-6
				c0-3,0.6-5.1,1.7-6.1c1.1-1.1,3.2-1.6,6.3-1.6c3,0,5.1,0.5,6.2,1.6C1067.4,425.7,1068,427.8,1068,430.7z M1066.5,524.3
				c0,0.4-0.1,0.8-0.3,1c-0.2,0.3-0.5,0.5-1,0.7c-0.5,0.2-1.1,0.4-1.9,0.5c-0.8,0.1-1.9,0.2-3.2,0.2c-1.2,0-2.3-0.1-3.1-0.2
				c-0.8-0.1-1.5-0.3-2-0.5c-0.5-0.2-0.8-0.5-1-0.7c-0.2-0.3-0.3-0.6-0.3-1v-70c0-0.4,0.1-0.7,0.3-1c0.2-0.3,0.5-0.6,1-0.8
				c0.5-0.2,1.2-0.4,2-0.5c0.8-0.1,1.9-0.2,3.1-0.2c1.3,0,2.4,0.1,3.2,0.2c0.8,0.1,1.5,0.3,1.9,0.5c0.5,0.2,0.8,0.5,1,0.8
				c0.2,0.3,0.3,0.6,0.3,1V524.3z"/>
			<path d="M1140.5,513.7c0,0.9,0,1.6-0.1,2.3c-0.1,0.6-0.1,1.2-0.3,1.6c-0.1,0.4-0.3,0.8-0.5,1.2c-0.2,0.3-0.6,0.8-1.2,1.5
				c-0.6,0.6-1.7,1.5-3.3,2.4c-1.6,1-3.3,1.8-5.2,2.6c-1.9,0.8-4.1,1.4-6.3,1.8c-2.3,0.5-4.6,0.7-7.1,0.7c-5,0-9.5-0.8-13.4-2.5
				c-3.9-1.7-7.1-4.1-9.8-7.3c-2.6-3.2-4.6-7.1-6-11.7c-1.4-4.6-2.1-10-2.1-16.1c0-6.9,0.8-12.8,2.5-17.8c1.7-5,4-9,6.9-12.2
				c2.9-3.2,6.4-5.5,10.3-7c4-1.5,8.3-2.3,12.9-2.3c2.2,0,4.4,0.2,6.5,0.6c2.1,0.4,4,1,5.8,1.6c1.8,0.7,3.3,1.5,4.7,2.3
				c1.4,0.9,2.4,1.6,3,2.3c0.6,0.6,1,1.1,1.3,1.5c0.2,0.4,0.4,0.8,0.6,1.3c0.2,0.5,0.3,1,0.3,1.7c0.1,0.6,0.1,1.4,0.1,2.3
				c0,2-0.2,3.4-0.7,4.2c-0.5,0.8-1,1.2-1.7,1.2c-0.8,0-1.7-0.4-2.7-1.3c-1-0.9-2.3-1.8-3.8-2.8c-1.6-1-3.4-2-5.6-2.8
				c-2.2-0.9-4.8-1.3-7.8-1.3c-6.2,0-10.9,2.4-14.2,7.1c-3.3,4.7-4.9,11.6-4.9,20.6c0,4.5,0.4,8.5,1.3,11.9c0.9,3.4,2.1,6.2,3.8,8.5
				c1.7,2.3,3.7,4,6.1,5.1c2.4,1.1,5.2,1.7,8.3,1.7c3,0,5.5-0.5,7.8-1.4c2.2-0.9,4.2-2,5.8-3.1c1.6-1.1,3-2.1,4.1-3
				c1.1-0.9,2-1.4,2.6-1.4c0.4,0,0.7,0.1,0.9,0.3c0.3,0.2,0.5,0.6,0.7,1c0.2,0.5,0.3,1.1,0.4,1.9
				C1140.5,511.8,1140.5,512.7,1140.5,513.7z"/>
			<path d="M591.3,689.2c0,4.7-0.9,8.9-2.6,12.6c-1.7,3.7-4.1,6.8-7.2,9.4c-3.1,2.6-6.7,4.5-10.9,5.8c-4.2,1.3-8.7,1.9-13.5,1.9
				c-3.4,0-6.5-0.3-9.4-0.9c-2.9-0.6-5.4-1.3-7.7-2.1c-2.3-0.8-4.1-1.7-5.7-2.6c-1.5-0.9-2.6-1.6-3.2-2.3c-0.6-0.6-1-1.4-1.3-2.4
				c-0.3-1-0.4-2.2-0.4-3.8c0-1.1,0.1-2.1,0.2-2.8c0.1-0.8,0.3-1.4,0.5-1.8c0.2-0.5,0.5-0.8,0.8-1c0.3-0.2,0.7-0.3,1.1-0.3
				c0.7,0,1.7,0.4,3.1,1.3c1.3,0.9,3,1.8,5.1,2.9c2.1,1,4.6,2,7.5,2.9c2.9,0.9,6.3,1.4,10.1,1.4c2.9,0,5.6-0.4,8-1.2
				c2.4-0.8,4.5-1.9,6.2-3.3c1.7-1.4,3.1-3.2,4-5.2c0.9-2.1,1.4-4.4,1.4-7.1c0-2.9-0.6-5.3-1.9-7.3c-1.3-2-3-3.8-5.1-5.3
				c-2.1-1.5-4.5-2.9-7.3-4.2c-2.7-1.3-5.5-2.6-8.4-3.9c-2.9-1.3-5.6-2.8-8.3-4.4c-2.7-1.6-5.1-3.5-7.2-5.7
				c-2.1-2.2-3.8-4.7-5.2-7.7c-1.3-2.9-2-6.4-2-10.5c0-4.2,0.8-7.9,2.3-11.2c1.5-3.3,3.7-6.1,6.4-8.3c2.7-2.2,6-3.9,9.7-5.1
				c3.8-1.2,7.8-1.7,12.2-1.7c2.2,0,4.5,0.2,6.7,0.6c2.3,0.4,4.4,0.9,6.4,1.6c2,0.6,3.8,1.4,5.3,2.2c1.6,0.8,2.6,1.5,3.1,1.9
				c0.5,0.5,0.8,0.9,1,1.2c0.2,0.3,0.3,0.6,0.4,1.1c0.1,0.4,0.2,1,0.2,1.6c0.1,0.6,0.1,1.4,0.1,2.4c0,0.9,0,1.8-0.1,2.5
				c-0.1,0.7-0.2,1.3-0.3,1.8c-0.2,0.5-0.4,0.9-0.7,1.1c-0.3,0.2-0.6,0.3-1,0.3c-0.6,0-1.5-0.4-2.7-1.1c-1.2-0.7-2.7-1.5-4.5-2.4
				c-1.8-0.9-3.8-1.7-6.3-2.5c-2.4-0.8-5.1-1.1-8.1-1.1c-2.8,0-5.2,0.4-7.3,1.1c-2.1,0.8-3.8,1.7-5.1,3c-1.3,1.2-2.4,2.7-3,4.4
				c-0.7,1.7-1,3.5-1,5.4c0,2.8,0.6,5.2,1.9,7.2c1.3,2,3,3.8,5.2,5.4c2.2,1.6,4.6,3,7.3,4.3c2.7,1.3,5.5,2.6,8.4,3.9
				c2.9,1.3,5.7,2.8,8.4,4.4c2.7,1.6,5.2,3.4,7.3,5.6c2.2,2.2,3.9,4.7,5.2,7.6C590.6,681.7,591.3,685.2,591.3,689.2z"/>
			<path d="M668.7,677.4c0,2-0.5,3.5-1.5,4.3c-1,0.9-2.2,1.3-3.5,1.3h-46.1c0,3.9,0.4,7.4,1.2,10.5c0.8,3.1,2.1,5.8,3.9,8
				c1.8,2.2,4.2,3.9,7.1,5.1c2.9,1.2,6.5,1.8,10.7,1.8c3.3,0,6.3-0.3,8.9-0.8c2.6-0.5,4.9-1.2,6.8-1.8c1.9-0.7,3.5-1.3,4.7-1.8
				c1.2-0.5,2.1-0.8,2.8-0.8c0.4,0,0.7,0.1,1,0.3c0.3,0.2,0.5,0.5,0.7,0.8c0.2,0.4,0.3,0.9,0.3,1.5c0.1,0.6,0.1,1.4,0.1,2.4
				c0,0.7,0,1.3-0.1,1.7c-0.1,0.5-0.1,0.9-0.2,1.3s-0.2,0.7-0.4,1c-0.2,0.3-0.4,0.6-0.7,0.9c-0.3,0.3-1.1,0.8-2.5,1.4
				c-1.4,0.6-3.2,1.3-5.4,1.9c-2.2,0.6-4.8,1.2-7.7,1.7c-2.9,0.5-6.1,0.7-9.4,0.7c-5.8,0-10.8-0.8-15.1-2.4c-4.3-1.6-8-4-10.9-7.2
				c-3-3.2-5.2-7.1-6.7-11.9c-1.5-4.8-2.3-10.3-2.3-16.6c0-6,0.8-11.4,2.3-16.2c1.6-4.8,3.8-8.9,6.7-12.2c2.9-3.3,6.5-5.9,10.6-7.7
				c4.1-1.8,8.8-2.7,13.9-2.7c5.5,0,10.2,0.9,14,2.6c3.9,1.8,7,4.1,9.5,7.1c2.5,3,4.3,6.5,5.5,10.5c1.2,4,1.7,8.3,1.7,12.9V677.4z
				 M655.8,673.6c0.2-6.7-1.3-12-4.5-15.9c-3.2-3.8-7.8-5.8-14-5.8c-3.2,0-6,0.6-8.4,1.8c-2.4,1.2-4.4,2.8-6,4.7
				c-1.6,2-2.9,4.3-3.8,6.9c-0.9,2.6-1.4,5.4-1.5,8.2H655.8z"/>
			<path d="M729.1,650.1c0,1.1,0,2.1-0.1,2.9c-0.1,0.8-0.2,1.4-0.3,1.8c-0.2,0.4-0.3,0.8-0.6,1c-0.2,0.2-0.6,0.3-1,0.3
				c-0.4,0-0.9-0.1-1.5-0.3c-0.6-0.2-1.3-0.5-2-0.7c-0.8-0.2-1.6-0.5-2.5-0.7c-0.9-0.2-1.9-0.3-3-0.3c-1.3,0-2.6,0.3-3.8,0.8
				c-1.2,0.5-2.6,1.4-3.9,2.6c-1.4,1.2-2.8,2.8-4.3,4.7c-1.5,2-3.2,4.4-5,7.2v46c0,0.4-0.1,0.8-0.3,1c-0.2,0.3-0.5,0.5-1,0.7
				c-0.5,0.2-1.1,0.4-1.9,0.5c-0.8,0.1-1.9,0.2-3.2,0.2c-1.2,0-2.3-0.1-3.1-0.2c-0.8-0.1-1.5-0.3-2-0.5c-0.5-0.2-0.8-0.5-1-0.7
				c-0.2-0.3-0.3-0.6-0.3-1v-70c0-0.4,0.1-0.8,0.2-1c0.2-0.3,0.5-0.5,0.9-0.8c0.5-0.2,1.1-0.4,1.8-0.5c0.7-0.1,1.7-0.1,2.9-0.1
				c1.1,0,2.1,0,2.8,0.1c0.8,0.1,1.3,0.2,1.7,0.5c0.4,0.2,0.7,0.5,0.9,0.8c0.2,0.3,0.3,0.6,0.3,1v10.2c1.9-2.8,3.7-5.1,5.4-6.8
				c1.7-1.8,3.3-3.1,4.8-4.2c1.5-1,3-1.7,4.5-2.1c1.5-0.4,3-0.6,4.5-0.6c0.7,0,1.4,0,2.3,0.1c0.9,0.1,1.7,0.2,2.7,0.4
				c0.9,0.2,1.8,0.4,2.5,0.7c0.8,0.3,1.3,0.5,1.6,0.8c0.3,0.3,0.5,0.5,0.6,0.7c0.1,0.2,0.2,0.5,0.3,0.9c0.1,0.4,0.1,0.9,0.2,1.6
				C729.1,647.9,729.1,648.9,729.1,650.1z"/>
			<path d="M802.6,645.3c0,0.2,0,0.4,0,0.7c0,0.2-0.1,0.5-0.1,0.7c-0.1,0.3-0.1,0.5-0.2,0.9s-0.2,0.6-0.3,1l-23.9,66.5
				c-0.2,0.6-0.5,1-0.8,1.4c-0.3,0.4-0.8,0.6-1.5,0.9c-0.7,0.2-1.5,0.3-2.6,0.4c-1,0.1-2.3,0.1-3.9,0.1c-1.6,0-2.9-0.1-3.9-0.2
				c-1-0.1-1.9-0.3-2.5-0.5c-0.6-0.2-1.2-0.5-1.5-0.9c-0.4-0.4-0.6-0.8-0.9-1.3l-23.8-66.5c-0.2-0.6-0.4-1.2-0.5-1.6
				c-0.1-0.5-0.2-0.8-0.2-1c0-0.2,0-0.4,0-0.6c0-0.4,0.1-0.8,0.3-1.1c0.2-0.3,0.6-0.6,1-0.7c0.5-0.2,1.1-0.3,1.9-0.3
				c0.8-0.1,1.8-0.1,3-0.1c1.5,0,2.7,0,3.6,0.1c0.9,0.1,1.6,0.2,2.1,0.4c0.5,0.2,0.9,0.5,1.1,0.8s0.5,0.7,0.7,1.2l19.8,57.7l0.3,0.9
				l0.2-0.9l19.5-57.7c0.1-0.5,0.3-0.9,0.5-1.2c0.3-0.3,0.6-0.6,1.1-0.8c0.5-0.2,1.2-0.3,2-0.4c0.9-0.1,2-0.1,3.4-0.1
				c1.2,0,2.2,0,3,0.1c0.8,0.1,1.4,0.2,1.8,0.4c0.4,0.2,0.8,0.5,0.9,0.7C802.5,644.6,802.6,644.9,802.6,645.3z"/>
			<path d="M831.5,621.8c0,3-0.6,5.1-1.7,6.1c-1.1,1.1-3.2,1.6-6.3,1.6c-3,0-5.1-0.5-6.2-1.6c-1.1-1.1-1.7-3.1-1.7-6
				c0-3,0.6-5.1,1.7-6.1c1.1-1.1,3.2-1.6,6.3-1.6c3,0,5.1,0.5,6.2,1.6C830.9,616.9,831.5,618.9,831.5,621.8z M830,715.5
				c0,0.4-0.1,0.8-0.3,1c-0.2,0.3-0.5,0.5-1,0.7s-1.1,0.4-1.9,0.5c-0.8,0.1-1.9,0.2-3.2,0.2c-1.2,0-2.3-0.1-3.1-0.2
				c-0.8-0.1-1.5-0.3-2-0.5c-0.5-0.2-0.8-0.5-1-0.7c-0.2-0.3-0.3-0.6-0.3-1v-70c0-0.4,0.1-0.7,0.3-1c0.2-0.3,0.5-0.6,1-0.8
				c0.5-0.2,1.2-0.4,2-0.5c0.8-0.1,1.9-0.2,3.1-0.2c1.3,0,2.4,0.1,3.2,0.2c0.8,0.1,1.5,0.3,1.9,0.5c0.5,0.2,0.8,0.5,1,0.8
				c0.2,0.3,0.3,0.6,0.3,1V715.5z"/>
			<path d="M904,704.8c0,0.9,0,1.6-0.1,2.3c-0.1,0.6-0.1,1.2-0.3,1.6c-0.1,0.4-0.3,0.8-0.5,1.2c-0.2,0.3-0.6,0.8-1.2,1.5
				c-0.6,0.6-1.7,1.5-3.3,2.4c-1.6,1-3.3,1.8-5.2,2.6c-1.9,0.8-4.1,1.4-6.3,1.8c-2.3,0.5-4.6,0.7-7.1,0.7c-5,0-9.5-0.8-13.4-2.5
				c-3.9-1.7-7.1-4.1-9.8-7.3c-2.6-3.2-4.6-7.1-6-11.7c-1.4-4.6-2.1-10-2.1-16.1c0-6.9,0.8-12.8,2.5-17.8c1.7-5,4-9,6.9-12.2
				c2.9-3.2,6.4-5.5,10.3-7c4-1.5,8.3-2.3,12.9-2.3c2.2,0,4.4,0.2,6.5,0.6c2.1,0.4,4,1,5.8,1.6c1.8,0.7,3.3,1.5,4.7,2.3
				c1.4,0.9,2.4,1.6,3,2.3c0.6,0.6,1,1.1,1.3,1.5c0.2,0.4,0.4,0.8,0.6,1.3c0.2,0.5,0.3,1,0.3,1.7c0.1,0.6,0.1,1.4,0.1,2.3
				c0,2-0.2,3.4-0.7,4.2c-0.5,0.8-1,1.2-1.7,1.2c-0.8,0-1.7-0.4-2.7-1.3s-2.3-1.8-3.8-2.8c-1.6-1-3.4-2-5.6-2.8
				c-2.2-0.9-4.8-1.3-7.8-1.3c-6.2,0-10.9,2.4-14.2,7.1c-3.3,4.7-4.9,11.6-4.9,20.6c0,4.5,0.4,8.5,1.3,11.9c0.9,3.4,2.1,6.2,3.8,8.5
				c1.7,2.3,3.7,4,6.1,5.1c2.4,1.1,5.2,1.7,8.3,1.7c3,0,5.5-0.5,7.8-1.4c2.2-0.9,4.2-2,5.8-3.1c1.6-1.1,3-2.1,4.1-3
				c1.1-0.9,2-1.4,2.6-1.4c0.4,0,0.7,0.1,0.9,0.3c0.3,0.2,0.5,0.6,0.7,1c0.2,0.5,0.3,1.1,0.4,1.9C904,702.9,904,703.8,904,704.8z"/>
			<path d="M980.8,677.4c0,2-0.5,3.5-1.5,4.3c-1,0.9-2.2,1.3-3.5,1.3h-46.1c0,3.9,0.4,7.4,1.2,10.5c0.8,3.1,2.1,5.8,3.9,8
				c1.8,2.2,4.2,3.9,7.1,5.1c2.9,1.2,6.5,1.8,10.7,1.8c3.3,0,6.3-0.3,8.9-0.8c2.6-0.5,4.9-1.2,6.8-1.8c1.9-0.7,3.5-1.3,4.7-1.8
				c1.2-0.5,2.1-0.8,2.8-0.8c0.4,0,0.7,0.1,1,0.3c0.3,0.2,0.5,0.5,0.7,0.8c0.2,0.4,0.3,0.9,0.3,1.5c0.1,0.6,0.1,1.4,0.1,2.4
				c0,0.7,0,1.3-0.1,1.7c-0.1,0.5-0.1,0.9-0.2,1.3s-0.2,0.7-0.4,1c-0.2,0.3-0.4,0.6-0.7,0.9c-0.3,0.3-1.1,0.8-2.5,1.4
				c-1.4,0.6-3.2,1.3-5.4,1.9c-2.2,0.6-4.8,1.2-7.7,1.7c-2.9,0.5-6.1,0.7-9.4,0.7c-5.8,0-10.8-0.8-15.1-2.4c-4.3-1.6-8-4-10.9-7.2
				c-3-3.2-5.2-7.1-6.7-11.9c-1.5-4.8-2.3-10.3-2.3-16.6c0-6,0.8-11.4,2.3-16.2c1.6-4.8,3.8-8.9,6.7-12.2c2.9-3.3,6.5-5.9,10.6-7.7
				c4.1-1.8,8.8-2.7,13.9-2.7c5.5,0,10.2,0.9,14,2.6c3.9,1.8,7,4.1,9.5,7.1c2.5,3,4.3,6.5,5.5,10.5c1.2,4,1.7,8.3,1.7,12.9V677.4z
				 M967.9,673.6c0.2-6.7-1.3-12-4.5-15.9c-3.2-3.8-7.8-5.8-14-5.8c-3.2,0-6,0.6-8.4,1.8c-2.4,1.2-4.4,2.8-6,4.7
				c-1.6,2-2.9,4.3-3.8,6.9c-0.9,2.6-1.4,5.4-1.5,8.2H967.9z"/>
			<path d="M1044.2,696.4c0,3.6-0.7,6.8-2,9.6s-3.2,5.2-5.6,7.1c-2.4,1.9-5.3,3.4-8.7,4.4c-3.4,1-7.1,1.5-11.1,1.5
				c-2.5,0-4.9-0.2-7.1-0.6c-2.3-0.4-4.3-0.9-6.1-1.5s-3.3-1.2-4.5-1.9c-1.2-0.6-2.2-1.2-2.7-1.7c-0.6-0.5-1-1.2-1.2-2.2
				c-0.3-0.9-0.4-2.2-0.4-3.8c0-1,0.1-1.8,0.2-2.5c0.1-0.7,0.2-1.2,0.4-1.6c0.2-0.4,0.4-0.7,0.7-0.9c0.3-0.2,0.6-0.3,1-0.3
				c0.6,0,1.4,0.3,2.5,1c1.1,0.7,2.5,1.5,4.1,2.3c1.6,0.8,3.6,1.6,5.8,2.3c2.2,0.7,4.8,1,7.7,1c2.2,0,4.1-0.2,5.9-0.7
				c1.8-0.5,3.3-1.2,4.6-2.1c1.3-0.9,2.3-2.1,3-3.5s1-3.1,1-5c0-2-0.5-3.6-1.5-5c-1-1.3-2.3-2.5-4-3.6c-1.7-1-3.5-2-5.6-2.8
				c-2.1-0.8-4.2-1.6-6.4-2.5c-2.2-0.9-4.4-1.9-6.5-3c-2.1-1.1-4-2.5-5.6-4.1c-1.7-1.6-3-3.5-4-5.8c-1-2.2-1.5-4.9-1.5-8
				c0-2.7,0.5-5.4,1.6-7.9c1.1-2.5,2.7-4.7,4.8-6.6c2.1-1.9,4.8-3.4,8-4.5c3.2-1.1,6.9-1.7,11.2-1.7c1.9,0,3.7,0.2,5.6,0.5
				c1.9,0.3,3.6,0.7,5.1,1.2c1.5,0.5,2.8,1,3.8,1.5c1.1,0.5,1.9,1,2.4,1.4c0.5,0.4,0.9,0.8,1.1,1.1c0.2,0.3,0.3,0.7,0.4,1
				c0.1,0.4,0.2,0.9,0.2,1.4c0.1,0.6,0.1,1.3,0.1,2.1c0,0.9,0,1.6-0.1,2.3c-0.1,0.6-0.2,1.2-0.4,1.6c-0.2,0.4-0.4,0.7-0.7,0.9
				c-0.3,0.2-0.5,0.3-0.9,0.3c-0.5,0-1.1-0.3-2-0.9c-0.9-0.6-2-1.2-3.4-1.8c-1.4-0.6-3-1.3-4.9-1.8c-1.9-0.6-4.1-0.9-6.5-0.9
				c-2.2,0-4.1,0.2-5.8,0.7c-1.7,0.5-3,1.2-4.1,2.1c-1.1,0.9-1.9,2-2.4,3.2c-0.5,1.2-0.8,2.6-0.8,4c0,2,0.5,3.7,1.6,5.1
				c1,1.4,2.4,2.6,4,3.6c1.7,1,3.6,2,5.7,2.8c2.1,0.8,4.3,1.7,6.5,2.6c2.2,0.9,4.4,1.9,6.5,3c2.2,1.1,4.1,2.4,5.7,4
				c1.7,1.6,3,3.4,4,5.6S1044.2,693.4,1044.2,696.4z"/>
		</g>
	</g>
	<g id="Backup" class="st0">
		
			<radialGradient id="SVGID_1_" cx="90.7971" cy="955.3635" r="255.8943" gradientTransform="matrix(0.8787 -0.4775 0.2095 0.3855 16.3877 427.0803)" gradientUnits="userSpaceOnUse">
			<stop  offset="0" style="stop-color:#FFFFFF"/>
			<stop  offset="1" style="stop-color:#FFFFFF;stop-opacity:0"/>
		</radialGradient>
		<path class="st14" d="M527.2,625.3c30.5,56.1-48.4,157.8-176.2,227.3S94.9,932.9,64.4,876.8C33.9,820.8,112.8,719,240.6,649.6
			S496.7,569.3,527.2,625.3z"/>
		<g class="st2">
			<path class="st9" d="M277,709.2c-3.3-5.4-15-4.8-27.5,4.1c-14.9,10.5-23.5,31.3-38.3,40.8c-12.7,8.1-38.8-2.4-64.8,14.5
				c-29.6,19.2-36.4,44.5-10.3,85.2c26.1,40.7,51.9,38.2,77.2,22c23.3-14.9,21.4-34.9,38.8-46c18.3-11.7,32.8-7.4,44.2-12.1
				c13.5-5.6,14.7-15.9,9.6-19.6c-4.5-3.3-14.7,6.1-24.9-9.1c-4.9-7.3-5.3-13.8-0.4-17.2c16.6-11.7,19.7-37.8,2.2-28.1
				c-5.2,2.9-12.2,2.9-18.1-5.3C258.7,730.1,281.2,716.1,277,709.2z"/>
			<path class="st6" d="M278.1,790.8c7.8,12.2,16.9,10.8,22.2,10.1c1.2-0.2,3.1-0.4,3.5-0.2c1,0.7,1.5,2,1.3,3.6
				c-0.4,3.8-4.3,7.5-10.2,10c-3.8,1.6-8.2,2.1-13.2,2.6c-9.1,1-19.4,2.1-31.5,9.8c-8.8,5.6-13,13.1-17.4,21.1l1.3,0.7l-1.3-0.7
				c-4.8,8.6-9.4,17.9-21.4,24.9c-10.7,6.3-11.4-6.1-9.5-16.4c3.7-20.3-15.8-37.8-31.4-51.1s6.9-28.9,30.4-30.1
				c23.5-1.2,45-12.7,52.1-26.8c6.5-12.9,11.2-2.9,13.5,8.5c1.1,5.7,9.3,13.8,7.9,19C273,780.5,275.7,787.1,278.1,790.8z"/>
			<path class="st13" d="M271.7,777.6l160.5-106.7l-9-14.1L258.8,758.6C259.5,767.9,263.6,773.9,271.7,777.6z"/>
			<path class="st13" d="M456.3,672.3c12-9.3,23.6-15.1,31.8-18.4c16.9-6.7,23-15.9-1.8-11.8l-59.5,9.9c-2.3,0.4-4-0.4-6,4.6
				c-0.7,1.8-1.8,3.7-3,4.5l8.1,12.7c2.1-1.4,9.3-2.5,15.9-0.5C445.8,674.7,453.2,674.7,456.3,672.3z"/>
			
				<rect x="477.4" y="639.9" transform="matrix(0.9863 -0.1648 0.1648 0.9863 -99.4866 87.6229)" class="st13" width="2.1" height="7.2"/>
			<path class="st13" d="M474.8,641.2l-0.4-2.5c0.4-2.4,4.9-3.1,6-1l0.4,2.5C480.3,641.7,475.8,642.5,474.8,641.2z"/>
			
				<rect x="467.7" y="641.5" transform="matrix(0.9863 -0.1647 0.1647 0.9863 -99.8286 86.0041)" class="st13" width="2.1" height="7.2"/>
			<path class="st13" d="M465.2,642.8l-0.4-2.5c0.4-2.4,4.9-3.1,6-1l0.4,2.5C470.7,643.3,466.2,644.1,465.2,642.8z"/>
			
				<rect x="458.1" y="643.1" transform="matrix(0.9864 -0.1645 0.1645 0.9864 -100.1527 84.3702)" class="st13" width="2.1" height="7.2"/>
			<path class="st13" d="M455.6,644.4l-0.4-2.5c0.4-2.4,4.9-3.1,6-1l0.4,2.5C461,644.9,456.6,645.7,455.6,644.4z"/>
			
				<rect x="448.5" y="644.7" transform="matrix(0.9863 -0.1649 0.1649 0.9863 -100.7574 83.0123)" class="st13" width="2.1" height="7.2"/>
			<path class="st13" d="M446,646l-0.4-2.5c0.4-2.4,4.9-3.1,6-1l0.4,2.5C451.4,646.5,446.9,647.3,446,646z"/>
			
				<rect x="438.9" y="646.3" transform="matrix(0.9864 -0.1646 0.1646 0.9864 -100.9742 81.2761)" class="st13" width="2.1" height="7.2"/>
			<path class="st13" d="M436.3,647.6l-0.4-2.5c0.4-2.4,4.9-3.1,6-1l0.4,2.5C441.8,648.2,437.3,648.9,436.3,647.6z"/>
			
				<rect x="429.2" y="647.9" transform="matrix(0.9863 -0.1647 0.1647 0.9863 -101.4122 79.7536)" class="st13" width="2.1" height="7.2"/>
			<path class="st13" d="M426.7,649.3l-0.4-2.5c0.4-2.4,4.9-3.1,6-1l0.4,2.5C432.2,649.8,427.7,650.5,426.7,649.3z"/>
		</g>
	</g>
</g>
</svg>
