<?xml version="1.0" encoding="utf-8"?>
<!-- Generator: Adobe Illustrator 22.1.0, SVG Export Plug-In . SVG Version: 6.00 Build 0)  -->
<svg version="1.1" xmlns="http://www.w3.org/2000/svg" xmlns:xlink="http://www.w3.org/1999/xlink" x="0px" y="0px"
	 viewBox="0 0 1200 1000" style="enable-background:new 0 0 1200 1000;" xml:space="preserve">
<style type="text/css">
	.st0{display:none;}
	.st1{display:inline;fill-rule:evenodd;clip-rule:evenodd;fill:#BF0010;}
	.st2{display:inline;}
	.st3{fill-rule:evenodd;clip-rule:evenodd;fill:#BBBBBB;}
	.st4{fill:#EEEEEE;}
	.st5{display:inline;fill:#EEEEEE;}
	.st6{fill-rule:evenodd;clip-rule:evenodd;fill:#EEEEEE;}
	.st7{display:inline;fill:#333333;}
	.st8{display:inline;fill-rule:evenodd;clip-rule:evenodd;fill:#333333;}
	.st9{fill-rule:evenodd;clip-rule:evenodd;fill:#BF0010;}
	.st10{display:inline;fill-rule:evenodd;clip-rule:evenodd;fill:#EEEEEE;}
	.st11{display:inline;fill-rule:evenodd;clip-rule:evenodd;fill:#003080;}
	.st12{fill-rule:evenodd;clip-rule:evenodd;fill:#383838;}
	.st13{fill-rule:evenodd;clip-rule:evenodd;fill:#333333;}
	.st14{display:inline;fill-rule:evenodd;clip-rule:evenodd;fill:url(#SVGID_1_);}
</style>
<g id="Layer_1" class="st0">
</g>
<g id="Layer_2">
	<g>
		<path class="st13" d="M562,385.4c0.2-16.1-25.8-30.8-65.2-28.8c-46.6,2.4-93.6,35.5-138.6,35.8c-38.5,0.2-80.7-58.2-159.8-57.2
			C108.2,336.4,59,381.8,59.7,505.4c0.8,123.6,60,153.5,136.9,153c70.6-0.4,94-46.1,146.8-46.4c55.5-0.3,81,28.9,112.1,34.2
			c36.8,6.3,53.5-14.3,47.5-29.3c-5.3-13.3-40.1-7-41.4-53.6c-0.6-22.4,7.4-37.1,22.7-37.8c51.9-2.5,94.1-54.8,43.1-57.7
			c-15.1-0.8-30.3-10.2-31.9-36.2S561.8,406.2,562,385.4z"/>
		<path class="st13" d="M457.1,526.1l492.9-11.5l-0.3-42.8l-494.5-4.4C443.9,488.5,444.6,507,457.1,526.1z"/>
		<path class="st13" d="M1000.1,550.8c38.8-3.7,71.7-0.5,93.9,3.8c45.7,8.8,71.5-3,12.2-27.9l-142.3-59.9c-5.6-2.3-8-6.3-19.3,1.8
			c-4,2.9-8.8,5.6-12.7,5.6l0.3,38.5c6.4,0,23.6,7.3,35,20.8C974.1,541.8,990.1,551.7,1000.1,550.8z"/>
		
			<rect x="1078.1" y="516" transform="matrix(0.3877 -0.9218 0.9218 0.3877 187.6178 1319.8859)" class="st13" width="18.4" height="5.4"/>
		<path class="st13" d="M1082.6,508.9l2.5-5.9c4.1-4.7,14.8-0.1,14.3,6l-2.5,5.9C1093.7,517.5,1083,513,1082.6,508.9z"/>
		
			<rect x="1055.1" y="506.3" transform="matrix(0.3878 -0.9218 0.9218 0.3878 182.3762 1292.6749)" class="st13" width="18.4" height="5.4"/>
		<path class="st13" d="M1059.6,499.2l2.5-5.9c4.1-4.7,14.8-0.1,14.3,6l-2.5,5.9C1070.7,507.8,1060,503.3,1059.6,499.2z"/>
		
			<rect x="1032.1" y="496.7" transform="matrix(0.3879 -0.9217 0.9217 0.3879 177.1164 1265.4421)" class="st13" width="18.4" height="5.4"/>
		<path class="st13" d="M1036.6,489.6l2.5-5.9c4.1-4.7,14.8-0.1,14.3,6l-2.5,5.9C1047.7,498.1,1037,493.6,1036.6,489.6z"/>
		<polygon class="st13" points="1024.3,482.3 1017.2,499.2 1012.2,497.1 1019.4,480.2 		"/>
		<path class="st13" d="M1013.6,479.9l2.5-5.9c4.1-4.6,14.8-0.1,14.3,6l-2.5,5.9C1024.7,488.5,1014,484,1013.6,479.9z"/>
		
			<rect x="986.1" y="477.3" transform="matrix(0.3878 -0.9217 0.9217 0.3878 166.8313 1211.2435)" class="st13" width="18.4" height="5.4"/>
		<path class="st13" d="M990.6,470.2l2.5-5.9c4.1-4.7,14.8-0.1,14.3,6l-2.5,5.9C1001.7,478.8,991,474.3,990.6,470.2z"/>
		
			<rect x="963.1" y="467.6" transform="matrix(0.3878 -0.9218 0.9218 0.3878 161.7254 1184.182)" class="st13" width="18.4" height="5.4"/>
		<path class="st13" d="M967.6,460.5l2.5-5.9c4.1-4.7,14.8-0.1,14.3,6l-2.5,5.9C978.7,469.1,968,464.6,967.6,460.5z"/>
	</g>
</g>
</svg>
